<?xml version="1.0" encoding="utf-8"?>
<svg width="553" height="312" viewBox="0 0 553 312" xmlns="http://www.w3.org/2000/svg">
<rect id="frame" x="0" y="0" width="553" height="312" fill="#f7f7f7" stroke="none" stroke-width="0"/>

<!-- Association posseder -->
<g>
	<line x1="303" y1="68" x2="195" y2="68" stroke="#5aae61" stroke-width="2"/>
	<text x="237" y="85" fill="#762a83" font-family="Verdana" font-size="12">0,N</text>
	<line x1="68" y1="68" x2="195" y2="68" stroke="#5aae61" stroke-width="2"/>
	<text x="132" y="60" fill="#762a83" font-family="Verdana" font-size="12">1,1</text>
	<g>
		<path d="M216 43 a14 14 90 0 1 14 14 V68 h-70 V57 a14 14 90 0 1 14 -14" fill="#a6dba0" stroke="#a6dba0" stroke-width="0"/>
		<path d="M230 68 v11 a14 14 90 0 1 -14 14 H174 a14 14 90 0 1 -14 -14 V68 H70" fill="#d9f0d3" stroke="#d9f0d3" stroke-width="0"/>
		<rect x="160" y="43" width="70" height="50" fill="none" rx="14" stroke="#5aae61" stroke-width="2"/>
		<line x1="160" y1="68" x2="230" y2="68" stroke="#5aae61" stroke-width="1"/>
		<text x="168" y="60.75" fill="#000" font-family="Verdana" font-size="12">posseder</text>
	</g>
</g>

<!-- Association choisir -->
<g>
	<line x1="68" y1="68" x2="303" y2="169" stroke="#5aae61" stroke-width="2"/>
	<text x="132" y="88.72" fill="#762a83" font-family="Verdana" font-size="12">N,N</text>
	<line x1="303" y1="261" x2="303" y2="169" stroke="#5aae61" stroke-width="2"/>
	<text x="308" y="211" fill="#762a83" font-family="Verdana" font-size="12">0,N</text>
	<g>
		<path d="M316 144 a14 14 90 0 1 14 14 V169 h-54 V158 a14 14 90 0 1 14 -14" fill="#a6dba0" stroke="#a6dba0" stroke-width="0"/>
		<path d="M330 169 v11 a14 14 90 0 1 -14 14 H290 a14 14 90 0 1 -14 -14 V169 H54" fill="#d9f0d3" stroke="#d9f0d3" stroke-width="0"/>
		<rect x="276" y="144" width="54" height="50" fill="none" rx="14" stroke="#5aae61" stroke-width="2"/>
		<line x1="276" y1="169" x2="330" y2="169" stroke="#5aae61" stroke-width="1"/>
		<text x="283" y="161.75" fill="#000" font-family="Verdana" font-size="12">choisir</text>
	</g>
</g>

<!-- Association appartient -->
<g>
	<line x1="68" y1="261" x2="195" y2="261" stroke="#5aae61" stroke-width="2"/>
	<text x="120" y="278" fill="#762a83" font-family="Verdana" font-size="12">0,N</text>
	<line x1="303" y1="261" x2="195" y2="261" stroke="#5aae61" stroke-width="2"/>
	<text x="240" y="278" fill="#762a83" font-family="Verdana" font-size="12">0,N</text>
	<g>
		<path d="M220 236 a14 14 90 0 1 14 14 V261 h-78 V250 a14 14 90 0 1 14 -14" fill="#a6dba0" stroke="#a6dba0" stroke-width="0"/>
		<path d="M234 261 v11 a14 14 90 0 1 -14 14 H170 a14 14 90 0 1 -14 -14 V261 H78" fill="#d9f0d3" stroke="#d9f0d3" stroke-width="0"/>
		<rect x="156" y="236" width="78" height="50" fill="none" rx="14" stroke="#5aae61" stroke-width="2"/>
		<line x1="156" y1="261" x2="234" y2="261" stroke="#5aae61" stroke-width="1"/>
		<text x="164" y="253.75" fill="#000" font-family="Verdana" font-size="12">appartient</text>
	</g>
</g>

<!-- Association avoir -->
<g>
	<line x1="303" y1="261" x2="412" y2="261" stroke="#5aae61" stroke-width="2"/>
	<text x="344" y="278" fill="#762a83" font-family="Verdana" font-size="12">1,1</text>
	<line x1="506" y1="261" x2="412" y2="261" stroke="#5aae61" stroke-width="2"/>
	<text x="441" y="278" fill="#762a83" font-family="Verdana" font-size="12">0,N</text>
	<g>
		<path d="M421 236 a14 14 90 0 1 14 14 V261 h-46 V250 a14 14 90 0 1 14 -14" fill="#a6dba0" stroke="#a6dba0" stroke-width="0"/>
		<path d="M435 261 v11 a14 14 90 0 1 -14 14 H403 a14 14 90 0 1 -14 -14 V261 H46" fill="#d9f0d3" stroke="#d9f0d3" stroke-width="0"/>
		<rect x="389" y="236" width="46" height="50" fill="none" rx="14" stroke="#5aae61" stroke-width="2"/>
		<line x1="389" y1="261" x2="435" y2="261" stroke="#5aae61" stroke-width="1"/>
		<text x="397" y="253.75" fill="#000" font-family="Verdana" font-size="12">avoir</text>
	</g>
</g>

<!-- Entity Tournament -->
<g>
	<g>
		<rect x="9" y="17" width="118" height="25" fill="#c2a5cf" stroke="#c2a5cf" stroke-width="0" opacity="1"/>
		<rect x="9" y="42" width="118" height="77" fill="#e7d4e8" stroke="#e7d4e8" stroke-width="0" opacity="1"/>
		<rect x="9" y="17" width="118" height="102" fill="none" stroke="#9970ab" stroke-width="2" opacity="1"/>
		<line x1="9" y1="42" x2="127" y2="42" stroke="#9970ab" stroke-width="1"/>
	</g>
	<text x="31" y="34.75" fill="#000" font-family="Verdana" font-size="12">Tournament</text>
	<text x="14" y="59.8" fill="#000" font-family="Verdana" font-size="12">code_tournament</text>
	<line x1="14" y1="62" x2="121" y2="62" stroke="#000" stroke-width="1"/>
	<text x="14" y="76.8" fill="#000" font-family="Verdana" font-size="12">name</text>
	<text x="14" y="93.8" fill="#000" font-family="Verdana" font-size="12">description</text>
	<text x="14" y="110.8" fill="#000" font-family="Verdana" font-size="12">event date</text>
</g>

<!-- Entity Sport -->
<g>
	<g>
		<rect x="264" y="17" width="78" height="25" fill="#c2a5cf" stroke="#c2a5cf" stroke-width="0" opacity="1"/>
		<rect x="264" y="42" width="78" height="77" fill="#e7d4e8" stroke="#e7d4e8" stroke-width="0" opacity="1"/>
		<rect x="264" y="17" width="78" height="102" fill="none" stroke="#9970ab" stroke-width="2" opacity="1"/>
		<line x1="264" y1="42" x2="342" y2="42" stroke="#9970ab" stroke-width="1"/>
	</g>
	<text x="286" y="34.75" fill="#000" font-family="Verdana" font-size="12">Sport</text>
	<text x="269" y="59.8" fill="#000" font-family="Verdana" font-size="12">code_sport</text>
	<line x1="269" y1="62" x2="337" y2="62" stroke="#000" stroke-width="1"/>
	<text x="269" y="76.8" fill="#000" font-family="Verdana" font-size="12">name</text>
	<text x="269" y="93.8" fill="#000" font-family="Verdana" font-size="12">description</text>
	<text x="269" y="110.8" fill="#000" font-family="Verdana" font-size="12">picture url</text>
</g>

<!-- Entity user -->
<g>
	<g>
		<rect x="375" y="9" width="74" height="25" fill="#c2a5cf" stroke="#c2a5cf" stroke-width="0" opacity="1"/>
		<rect x="375" y="34" width="74" height="93" fill="#e7d4e8" stroke="#e7d4e8" stroke-width="0" opacity="1"/>
		<rect x="375" y="9" width="74" height="118" fill="none" stroke="#9970ab" stroke-width="2" opacity="1"/>
		<line x1="375" y1="34" x2="449" y2="34" stroke="#9970ab" stroke-width="1"/>
	</g>
	<text x="399" y="26.75" fill="#000" font-family="Verdana" font-size="12">user</text>
	<text x="380" y="51.8" fill="#000" font-family="Verdana" font-size="12">code_user</text>
	<line x1="380" y1="54" x2="443" y2="54" stroke="#000" stroke-width="1"/>
	<text x="380" y="68.8" fill="#000" font-family="Verdana" font-size="12">email</text>
	<text x="380" y="85.8" fill="#000" font-family="Verdana" font-size="12">password</text>
	<text x="380" y="102.8" fill="#000" font-family="Verdana" font-size="12">firstname</text>
	<text x="380" y="119.8" fill="#000" font-family="Verdana" font-size="12">lastname</text>
</g>

<!-- Entity Sponsor -->
<g>
	<g>
		<rect x="21" y="219" width="94" height="25" fill="#c2a5cf" stroke="#c2a5cf" stroke-width="0" opacity="1"/>
		<rect x="21" y="244" width="94" height="59" fill="#e7d4e8" stroke="#e7d4e8" stroke-width="0" opacity="1"/>
		<rect x="21" y="219" width="94" height="84" fill="none" stroke="#9970ab" stroke-width="2" opacity="1"/>
		<line x1="21" y1="244" x2="115" y2="244" stroke="#9970ab" stroke-width="1"/>
	</g>
	<text x="43" y="236.75" fill="#000" font-family="Verdana" font-size="12">Sponsor</text>
	<text x="26" y="261.8" fill="#000" font-family="Verdana" font-size="12">code_sponsor</text>
	<line x1="26" y1="264" x2="110" y2="264" stroke="#000" stroke-width="1"/>
	<text x="26" y="278.8" fill="#000" font-family="Verdana" font-size="12">name</text>
	<text x="26" y="295.8" fill="#000" font-family="Verdana" font-size="12">slogan</text>
</g>

<!-- Entity Club -->
<g>
	<g>
		<rect x="267" y="219" width="72" height="25" fill="#c2a5cf" stroke="#c2a5cf" stroke-width="0" opacity="1"/>
		<rect x="267" y="244" width="72" height="59" fill="#e7d4e8" stroke="#e7d4e8" stroke-width="0" opacity="1"/>
		<rect x="267" y="219" width="72" height="84" fill="none" stroke="#9970ab" stroke-width="2" opacity="1"/>
		<line x1="267" y1="244" x2="339" y2="244" stroke="#9970ab" stroke-width="1"/>
	</g>
	<text x="289" y="236.75" fill="#000" font-family="Verdana" font-size="12">Club</text>
	<text x="272" y="261.8" fill="#000" font-family="Verdana" font-size="12">code_club</text>
	<line x1="272" y1="264" x2="333" y2="264" stroke="#000" stroke-width="1"/>
	<text x="272" y="278.8" fill="#000" font-family="Verdana" font-size="12">name</text>
	<text x="272" y="295.8" fill="#000" font-family="Verdana" font-size="12">country</text>
</g>

<!-- Entity Level -->
<g>
	<g>
		<rect x="468" y="227" width="76" height="25" fill="#c2a5cf" stroke="#c2a5cf" stroke-width="0" opacity="1"/>
		<rect x="468" y="252" width="76" height="43" fill="#e7d4e8" stroke="#e7d4e8" stroke-width="0" opacity="1"/>
		<rect x="468" y="227" width="76" height="68" fill="none" stroke="#9970ab" stroke-width="2" opacity="1"/>
		<line x1="468" y1="252" x2="544" y2="252" stroke="#9970ab" stroke-width="1"/>
	</g>
	<text x="490" y="244.75" fill="#000" font-family="Verdana" font-size="12">Level</text>
	<text x="473" y="269.8" fill="#000" font-family="Verdana" font-size="12">code_level</text>
	<line x1="473" y1="272" x2="538" y2="272" stroke="#000" stroke-width="1"/>
	<text x="473" y="286.8" fill="#000" font-family="Verdana" font-size="12">name</text>
</g>
</svg>